<svg width="194.44" height="37" xml:space="preserve" xmlns="http://www.w3.org/2000/svg"><path d="M156.84 37h7.3l-15.1-37-15.2 37h7.5l3-6.7h9.6zm-4.8-12.8h-5.8l2.9-7.3zm41.3-2.4c-.7-1.3-1.7-2.4-2.8-3.3-.8-.6-1.7-1-2.6-1.4 1.3-.7 2.4-1.6 3.2-2.7 1-1.4 1.5-3 1.5-5 0-2.1-.5-3.9-1.5-5.3s-2.3-2.4-4-3.1-3.6-1-5.9-1h-11.7v37h12.5c2.5 0 4.7-.4 6.6-1.1s3.3-1.8 4.3-3.4c1-1.5 1.5-3.5 1.5-6 0-1.8-.4-3.4-1.1-4.7zm-12.9-14.9c1.3 0 2.3.3 3.1 1 .7.6 1.1 1.6 1.1 2.9 0 .8-.2 1.6-.5 2.1-.3.6-.8 1-1.4 1.3s-1.4.5-2.3.5h-3.2V6.9zm5.3 21.2c-.5.7-1.1 1.2-1.9 1.5s-1.7.4-2.7.4h-3.9v-9.1h3.9c.8 0 1.5.1 2.1.2.6.2 1.2.4 1.7.8s.9.8 1.1 1.4c.3.6.4 1.2.4 2 0 1.2-.2 2.2-.7 2.8zM116.04 0v29.3h13.7V37h-21.9V0zM8.2 0v29.3h13.7V37H0V0zM49 37h7.3l-15-37L26 37h7.5l3-6.7h9.6zm-4.8-12.8h-5.8l2.9-7.3zm19.7-5.3L57.1 0h-7.5l13.5 37 9.5-22.4L82.9 37 94.5 0h-7.6l-5.6 18.9L72.1 0z" style="fill:#fff"/></svg>